<svg width="20" height="20" viewBox="0 0 20 20" fill="none" xmlns="http://www.w3.org/2000/svg">
<g clip-path="url(#clip0_1302_4774)">
<path d="M10.0001 11.666C11.3834 11.666 12.4917 10.5493 12.4917 9.16602L12.5001 4.16602C12.5001 2.78268 11.3834 1.66602 10.0001 1.66602C8.61675 1.66602 7.50008 2.78268 7.50008 4.16602V9.16602C7.50008 10.5493 8.61675 11.666 10.0001 11.666ZM9.00008 4.08268C9.00008 3.53268 9.45008 3.08268 10.0001 3.08268C10.5501 3.08268 11.0001 3.53268 11.0001 4.08268L10.9917 9.24935C10.9917 9.79935 10.5501 10.2493 10.0001 10.2493C9.45008 10.2493 9.00008 9.79935 9.00008 9.24935V4.08268ZM14.4167 9.16602C14.4167 11.666 12.3001 13.416 10.0001 13.416C7.70008 13.416 5.58341 11.666 5.58341 9.16602H4.16675C4.16675 12.0077 6.43341 14.3577 9.16675 14.766V17.4993H10.8334V14.766C13.5667 14.366 15.8334 12.016 15.8334 9.16602H14.4167Z" fill="white"/>
</g>
<defs>
<clipPath id="clip0_1302_4774">
<rect width="20" height="20" fill="white"/>
</clipPath>
</defs>
</svg>
